<svg width="15" height="10" viewBox="0 0 15 10" fill="none" xmlns="http://www.w3.org/2000/svg">
<path d="M-8601 -4361C-8601 -4362.1 -8600.1 -4363 -8599 -4363H5925C5926.1 -4363 5927 -4362.1 5927 -4361V6067C5927 6068.1 5926.1 6069 5925 6069H-8599C-8600.1 6069 -8601 6068.1 -8601 6067V-4361Z" fill="#404040"/>
<path d="M-8599 -4362H5925V-4364H-8599V-4362ZM5926 -4361V6067H5928V-4361H5926ZM5925 6068H-8599V6070H5925V6068ZM-8600 6067V-4361H-8602V6067H-8600ZM-8599 6068C-8599.55 6068 -8600 6067.55 -8600 6067H-8602C-8602 6068.66 -8600.66 6070 -8599 6070V6068ZM5926 6067C5926 6067.55 5925.55 6068 5925 6068V6070C5926.66 6070 5928 6068.66 5928 6067H5926ZM5925 -4362C5925.55 -4362 5926 -4361.55 5926 -4361H5928C5928 -4362.66 5926.66 -4364 5925 -4364V-4362ZM-8599 -4364C-8600.66 -4364 -8602 -4362.66 -8602 -4361H-8600C-8600 -4361.55 -8599.55 -4362 -8599 -4362V-4364Z" fill="white" fill-opacity="0.1"/>
<g clip-path="url(#clip0_0_1)">
<rect width="1430" height="800" transform="translate(-1325 -238)" fill="white"/>
<g clip-path="url(#clip1_0_1)">
<rect width="1140" height="720" transform="translate(-1035 -158)" fill="white"/>
<path d="M5.98136 9.70587V8.38235H9.01017V9.70587H5.98136ZM2.56223 5.51468V4.19119H12.4293V5.51468H2.56223ZM0 1.32351V0H15V1.32351H0Z" fill="#4C4C4C"/>
</g>
</g>
<defs>
<clipPath id="clip0_0_1">
<rect width="1430" height="800" fill="white" transform="translate(-1325 -238)"/>
</clipPath>
<clipPath id="clip1_0_1">
<rect width="1140" height="720" fill="white" transform="translate(-1035 -158)"/>
</clipPath>
</defs>
</svg>
